<?xml version="1.0" standalone="no"?>
<!DOCTYPE svg PUBLIC "-//W3C//DTD SVG 20010904//EN"
 "http://www.w3.org/TR/2001/REC-SVG-20010904/DTD/svg10.dtd">
<svg version="1.0" xmlns="http://www.w3.org/2000/svg"
 width="193.000000pt" height="250.000000pt" viewBox="0 0 193.000000 250.000000"
 preserveAspectRatio="xMidYMid meet">

<g transform="translate(0.000000,250.000000) scale(0.100000,-0.100000)"
fill="#000000" stroke="none">
<path d="M806 2414 c-352 -70 -597 -303 -693 -659 -23 -89 -27 -119 -27 -270
-1 -190 11 -267 69 -441 87 -263 267 -533 477 -714 88 -76 235 -180 255 -180
7 0 15 12 19 28 12 57 17 66 57 109 39 43 40 45 28 79 -17 48 -2 130 60 329
19 59 19 62 0 148 -14 64 -17 97 -10 124 18 74 37 327 29 378 -10 57 -22 41
120 157 41 34 114 99 161 146 48 46 104 92 125 101 45 20 104 82 123 128 9 21
25 36 49 46 80 32 159 181 124 233 -27 42 -285 176 -420 218 -176 55 -392 71
-546 40z m390 -19 c115 -21 240 -63 356 -121 75 -38 159 -87 188 -111 2 -2
-10 -15 -27 -29 -17 -13 -51 -55 -74 -94 -37 -59 -50 -72 -94 -91 -66 -28
-168 -101 -202 -145 -18 -22 -67 -55 -133 -91 -58 -31 -125 -69 -149 -86 -36
-24 -59 -32 -125 -38 -45 -5 -91 -11 -103 -15 -21 -6 -21 -4 -18 91 2 71 6
100 16 105 8 4 46 15 86 25 46 11 90 30 120 51 54 38 66 40 116 19 46 -19 67
-19 67 -1 0 10 14 16 43 18 l42 3 -25 17 c-14 9 -63 23 -110 31 -58 10 -79 17
-67 22 10 4 29 3 43 -4 31 -14 104 -15 104 -1 0 5 -9 15 -20 22 -34 22 -23 28
50 28 56 0 70 3 70 15 0 8 -6 15 -12 16 -7 0 -22 2 -33 4 -38 8 -130 7 -170 0
-35 -7 -92 -30 -215 -89 -19 -9 -53 -30 -75 -46 -29 -21 -47 -27 -65 -23 -39
9 -46 21 -19 33 79 34 119 83 119 146 0 31 -52 124 -69 124 -5 0 -23 12 -40
26 -33 27 -49 25 -85 -15 -11 -12 -27 -21 -37 -21 -18 0 -99 -77 -99 -94 0 -6
12 -22 26 -37 21 -22 27 -40 31 -92 5 -59 2 -71 -30 -138 -19 -41 -38 -86 -42
-100 -10 -42 38 -212 72 -253 38 -46 152 -137 209 -166 l44 -23 0 -66 c0 -36
5 -84 10 -106 15 -61 31 -216 37 -355 5 -133 -5 -219 -39 -333 -21 -68 -22
-174 -2 -221 5 -14 -17 -3 -70 34 -390 270 -657 712 -696 1154 -38 440 168
820 529 970 47 20 119 40 216 60 52 10 271 5 351 -9z"/>
<path d="M1787 1950 c-14 -36 -31 -40 -25 -5 5 25 -7 35 -15 13 -5 -16 10 -48
23 -48 5 0 17 14 26 31 12 23 19 28 27 20 9 -9 8 -17 -2 -32 -10 -18 -10 -20
1 -17 18 6 23 49 6 59 -22 14 -29 10 -41 -21z"/>
<path d="M1752 1855 c0 -22 2 -32 5 -23 3 12 17 18 46 21 l42 4 -42 1 c-30 2
-43 7 -46 20 -3 9 -5 -1 -5 -23z"/>
<path d="M1757 1793 c-4 -3 -7 -19 -7 -35 0 -27 2 -28 48 -27 26 1 37 4 25 6
-29 5 -30 29 -2 43 11 7 18 14 15 17 -3 3 -13 0 -21 -7 -12 -10 -19 -10 -27
-2 -14 14 -22 15 -31 5z m31 -31 c2 -15 -2 -22 -12 -22 -11 0 -16 9 -16 26 0
31 23 28 28 -4z"/>
<path d="M1793 1692 c-24 -9 -43 -20 -43 -25 0 -4 16 -15 35 -23 39 -16 69
-19 43 -3 -22 12 -24 49 -3 49 8 0 15 5 15 10 0 6 -1 9 -2 9 -2 -1 -22 -9 -45
-17z m7 -26 c0 -9 -7 -12 -21 -9 -16 4 -17 8 -7 14 19 13 28 11 28 -5z"/>
<path d="M1830 1540 c0 -39 -27 -41 -33 -2 l-4 27 -2 -27 c0 -17 -7 -28 -15
-28 -8 0 -17 12 -19 28 -4 25 -4 25 -6 -5 -1 -33 0 -33 44 -33 45 0 45 0 45
35 0 19 -2 35 -5 35 -3 0 -5 -13 -5 -30z"/>
<path d="M1825 1470 c-4 -6 -20 -8 -41 -4 -34 6 -34 6 -34 -30 l0 -36 48 1
c26 1 37 4 25 6 -29 6 -29 27 -1 47 12 9 19 18 16 21 -3 4 -9 1 -13 -5z m-37
-38 c2 -15 -2 -22 -12 -22 -11 0 -16 9 -16 26 0 31 23 28 28 -4z"/>
<path d="M1752 1345 c0 -22 2 -32 5 -23 3 12 17 18 46 21 l42 4 -42 1 c-30 2
-43 7 -46 20 -3 9 -5 -1 -5 -23z"/>
<path d="M1783 1274 c-18 -8 -33 -18 -33 -22 0 -4 20 -15 45 -24 25 -10 45
-13 45 -8 0 6 -7 10 -15 10 -21 0 -19 37 3 49 27 16 -6 12 -45 -5z m14 -30
c-2 -2 -12 -1 -22 3 -18 6 -18 7 1 13 17 7 33 -5 21 -16z"/>
<path d="M1830 1170 c0 -39 -27 -41 -33 -2 l-4 27 -2 -27 c0 -17 -7 -28 -15
-28 -8 0 -17 12 -19 28 -4 25 -4 25 -6 -5 -1 -33 0 -33 44 -33 45 0 45 0 45
35 0 19 -2 35 -5 35 -3 0 -5 -13 -5 -30z"/>
<path d="M1763 1093 c10 -3 17 -14 17 -28 0 -14 -7 -25 -17 -28 -10 -3 5 -5
32 -4 28 0 40 2 28 4 -16 3 -23 11 -23 28 0 17 7 25 23 28 12 2 0 4 -28 4 -27
1 -42 -1 -32 -4z"/>
<path d="M1752 975 c0 -22 2 -32 5 -23 3 12 17 18 46 21 l42 4 -42 1 c-30 2
-43 7 -46 20 -3 9 -5 -1 -5 -23z"/>
<path d="M1768 869 c-11 -6 -18 -22 -18 -39 0 -29 2 -30 45 -30 43 0 45 1 45
30 0 24 -6 33 -26 40 -30 12 -25 12 -46 -1z m57 -34 c0 -15 -8 -21 -32 -23
-30 -3 -33 -1 -33 23 0 24 3 26 33 23 24 -2 32 -8 32 -23z"/>
<path d="M1785 760 c22 -5 44 -4 50 1 5 5 -11 9 -40 8 l-50 -1 40 -8z"/>
<path d="M1785 740 c-3 -5 -2 -10 4 -10 5 0 13 5 16 10 3 6 2 10 -4 10 -5 0
-13 -4 -16 -10z"/>
<path d="M1757 724 c-16 -17 -4 -24 38 -24 25 0 45 5 45 10 0 6 -11 10 -24 10
-13 0 -31 2 -38 5 -8 3 -17 2 -21 -1z"/>
<path d="M1788 663 c-21 -8 -38 -19 -38 -23 0 -5 21 -15 48 -24 34 -11 42 -12
30 -2 -10 7 -18 20 -18 29 0 9 8 21 18 26 26 15 2 12 -40 -6z m12 -23 c0 -5
-4 -10 -9 -10 -6 0 -13 5 -16 10 -3 6 1 10 9 10 9 0 16 -4 16 -10z"/>
<path d="M1081 638 c-6 -17 -9 -34 -6 -36 3 -3 5 0 5 6 0 7 9 12 20 12 11 0
20 -5 20 -12 0 -6 3 -8 6 -5 8 8 -15 67 -26 67 -5 0 -13 -14 -19 -32z m29 2
c0 -5 -4 -10 -10 -10 -5 0 -10 5 -10 10 0 6 5 10 10 10 6 0 10 -4 10 -10z"/>
<path d="M1190 656 c0 -8 9 -18 20 -21 11 -3 20 -11 20 -16 0 -12 -27 -12 -33
1 -3 6 -4 5 -3 -2 1 -7 12 -14 24 -16 17 -3 22 2 22 17 0 12 -6 21 -14 21 -8
0 -18 5 -22 12 -5 8 0 9 14 6 12 -4 22 -2 22 3 0 5 -11 9 -25 9 -15 0 -25 -6
-25 -14z"/>
<path d="M1300 635 c0 -34 2 -36 28 -33 23 3 27 8 27 33 0 25 -4 30 -27 33
-26 3 -28 1 -28 -33z m50 0 c0 -18 -5 -25 -20 -25 -15 0 -20 7 -20 25 0 18 5
25 20 25 15 0 20 -7 20 -25z"/>
<path d="M1067 523 c20 -4 22 -12 26 -71 l3 -67 2 67 c2 54 5 67 20 71 9 3 -3
5 -28 4 -25 0 -35 -2 -23 -4z"/>
<path d="M1163 460 c0 -49 2 -63 6 -40 5 29 10 35 31 35 21 0 26 -6 31 -35 4
-23 6 -9 6 40 0 41 -2 60 -4 43 -4 -29 -8 -33 -33 -33 -25 0 -29 4 -33 33 -2
17 -4 -2 -4 -43z"/>
<path d="M1270 460 l0 -70 43 2 c36 1 38 2 10 5 -27 4 -33 9 -33 29 0 19 5 24
25 24 14 0 25 5 25 10 0 6 -11 10 -25 10 -20 0 -25 5 -25 24 0 20 6 25 33 29
28 3 26 4 -10 5 l-43 2 0 -70z"/>
<path d="M1432 458 c0 -40 3 -58 5 -40 5 41 27 42 48 1 9 -17 19 -29 22 -26 2
3 -1 15 -7 27 -9 17 -9 29 -1 47 18 40 5 63 -35 63 l-34 0 2 -72z m56 35 c3
-19 -1 -23 -22 -23 -21 0 -26 5 -26 26 0 21 4 25 23 22 14 -2 23 -11 25 -25z"/>
<path d="M1551 516 c-7 -8 -11 -35 -9 -62 2 -35 9 -50 25 -61 19 -13 24 -12
42 6 23 23 28 79 11 112 -12 22 -52 25 -69 5z m63 -27 c11 -32 1 -78 -19 -86
-25 -9 -45 17 -45 56 0 62 45 83 64 30z"/>
<path d="M1667 524 c-18 -18 -6 -54 23 -69 33 -17 39 -42 14 -52 -11 -4 -22 1
-30 12 -12 16 -14 17 -14 2 0 -9 8 -21 18 -26 26 -14 52 5 52 38 0 22 -7 31
-30 41 -33 14 -40 37 -14 47 11 4 22 -1 31 -13 14 -19 15 -19 11 1 -3 20 -46
33 -61 19z"/>
<path d="M1770 460 l0 -70 38 2 c36 1 36 1 5 5 -27 4 -33 9 -33 29 0 19 5 24
24 24 14 0 28 5 31 10 4 6 -7 10 -24 10 -26 0 -31 4 -31 24 0 20 6 25 33 29
31 4 31 4 -5 5 l-38 2 0 -70z"/>
<path d="M1585 305 c-21 -20 -25 -34 -25 -85 0 -51 4 -65 25 -85 13 -14 30
-25 37 -25 21 0 55 28 61 50 8 30 -13 36 -34 9 -15 -20 -21 -22 -36 -13 -26
16 -26 112 0 128 14 9 21 7 31 -6 17 -24 36 -23 36 1 0 21 -35 51 -58 51 -7 0
-24 -11 -37 -25z"/>
<path d="M1060 220 l0 -100 43 0 c62 0 80 23 80 100 0 77 -18 100 -80 100
l-43 0 0 -100z m78 58 c19 -19 16 -114 -4 -122 -39 -15 -44 -8 -44 64 0 61 2
70 18 70 10 0 23 -5 30 -12z"/>
<path d="M1265 308 c-3 -7 -16 -52 -29 -100 -23 -85 -23 -88 -5 -88 12 0 19 7
19 20 0 16 7 20 35 20 28 0 35 -4 35 -20 0 -13 7 -20 20 -20 11 0 20 1 20 3 0
1 -13 45 -28 97 -20 67 -33 96 -45 98 -9 2 -19 -2 -22 -10z m34 -90 c1 -10 -6
-18 -15 -18 -12 0 -15 6 -10 23 3 12 6 29 7 37 1 20 17 -18 18 -42z"/>
<path d="M1400 220 c0 -60 4 -100 10 -100 6 0 10 28 11 63 l0 62 32 -62 c46
-91 57 -84 57 37 0 60 -4 100 -10 100 -6 0 -10 -30 -11 -67 l-1 -68 -30 68
c-45 97 -58 90 -58 -33z"/>
<path d="M1730 220 l0 -100 55 0 c42 0 55 3 55 15 0 11 -11 15 -40 15 -38 0
-40 2 -40 30 0 28 2 30 40 30 29 0 40 4 40 15 0 11 -11 15 -40 15 -36 0 -40 3
-40 25 0 23 4 25 40 25 29 0 40 4 40 15 0 12 -13 15 -55 15 l-55 0 0 -100z"/>
</g>
</svg>
